<svg width="20" height="20" viewBox="0 0 20 20" fill="none" xmlns="http://www.w3.org/2000/svg">
<path d="M19.0056 12.6647H8.32976C7.78055 12.6647 7.33533 12.2195 7.33533 11.6702V0.994431C7.33533 0.445216 7.78055 0 8.32976 0H19.0056C19.5548 0 20 0.445216 20 0.994431V11.6702C20 12.2195 19.5548 12.6647 19.0056 12.6647Z" fill="url(#paint0_linear_812_932)"/>
<path d="M7.33533 5.32933V11.6702C7.33533 12.2195 7.78055 12.6647 8.32976 12.6647H19.0056C19.5548 12.6647 20 12.2195 20 11.6702V5.32933H7.33533Z" fill="url(#paint1_linear_812_932)"/>
<path d="M15.9713 3.89553V12.6647H19.0056C19.5548 12.6647 20 12.2195 20 11.6702L20 7.9242L15.9713 3.89553Z" fill="url(#paint2_linear_812_932)"/>
<path d="M15.3379 16.3323H4.66212C4.1129 16.3323 3.66769 15.8871 3.66769 15.3379V4.66212C3.66769 4.1129 4.1129 3.66769 4.66212 3.66769H15.3379C15.8871 3.66769 16.3324 4.1129 16.3324 4.66212V15.3379C16.3323 15.8871 15.8871 16.3323 15.3379 16.3323Z" fill="url(#paint3_linear_812_932)"/>
<path d="M15.3379 3.66769H7.33533V11.6702C7.33533 12.2195 7.78055 12.6647 8.32976 12.6647H16.3323V4.66212C16.3323 4.1129 15.8871 3.66769 15.3379 3.66769Z" fill="url(#paint4_linear_812_932)"/>
<path d="M3.66769 8.99698V15.3379C3.66769 15.8871 4.1129 16.3323 4.66212 16.3323H15.3379C15.8871 16.3323 16.3324 15.8871 16.3324 15.3379V8.99698H3.66769Z" fill="url(#paint5_linear_812_932)"/>
<path d="M12.3037 7.56318V16.3323H15.3379C15.8871 16.3323 16.3324 15.8871 16.3324 15.3379V11.5918L12.3037 7.56318Z" fill="url(#paint6_linear_812_932)"/>
<path d="M11.6702 20H0.994431C0.445216 20 0 19.5548 0 19.0056V8.32976C0 7.78055 0.445216 7.33533 0.994431 7.33533H11.6702C12.2195 7.33533 12.6647 7.78055 12.6647 8.32976V19.0056C12.6647 19.5548 12.2195 20 11.6702 20Z" fill="url(#paint7_linear_812_932)"/>
<path d="M0 12.6647V19.0056C0 19.5548 0.445216 20 0.994431 20H11.6702C12.2195 20 12.6647 19.5548 12.6647 19.0056V12.6647H0Z" fill="url(#paint8_linear_812_932)"/>
<path d="M11.6702 7.33533H3.66769V15.3379C3.66769 15.8871 4.1129 16.3323 4.66212 16.3323H12.6647V8.32976C12.6647 7.78055 12.2195 7.33533 11.6702 7.33533Z" fill="url(#paint9_linear_812_932)"/>
<path d="M12.6647 8.32976C12.6647 7.78055 12.2195 7.33533 11.6702 7.33533H7.33533V11.6702C7.33533 12.2195 7.78055 12.6647 8.32976 12.6647H12.6647V8.32976Z" fill="url(#paint10_linear_812_932)"/>
<defs>
<linearGradient id="paint0_linear_812_932" x1="3.17208" y1="3.17208" x2="17.7378" y2="17.7378" gradientUnits="userSpaceOnUse">
<stop stop-color="#FEE45A"/>
<stop offset="1" stop-color="#FEA613"/>
</linearGradient>
<linearGradient id="paint1_linear_812_932" x1="10" y1="11.0736" x2="10" y2="19.8943" gradientUnits="userSpaceOnUse">
<stop stop-color="#FEA613" stop-opacity="0"/>
<stop offset="1" stop-color="#E94444"/>
</linearGradient>
<linearGradient id="paint2_linear_812_932" x1="15.659" y1="10.9754" x2="-5.86139" y2="4.6238" gradientUnits="userSpaceOnUse">
<stop stop-color="#FEA613" stop-opacity="0"/>
<stop offset="1" stop-color="#E94444"/>
</linearGradient>
<linearGradient id="paint3_linear_812_932" x1="3.98119" y1="3.9812" x2="18.103" y2="18.103" gradientUnits="userSpaceOnUse">
<stop stop-color="#FEAEE1"/>
<stop offset="1" stop-color="#FE2AA8"/>
</linearGradient>
<linearGradient id="paint4_linear_812_932" x1="-5.38638" y1="-5.38647" x2="18.291" y2="18.291" gradientUnits="userSpaceOnUse">
<stop stop-color="#FEA613" stop-opacity="0"/>
<stop offset="1" stop-color="#E94444"/>
</linearGradient>
<linearGradient id="paint5_linear_812_932" x1="9.99997" y1="11.0737" x2="9.99997" y2="19.8944" gradientUnits="userSpaceOnUse">
<stop stop-color="#FE0364" stop-opacity="0"/>
<stop offset="0.3975" stop-color="#F70360" stop-opacity="0.398"/>
<stop offset="0.9701" stop-color="#E40257" stop-opacity="0.97"/>
<stop offset="1" stop-color="#E30256"/>
</linearGradient>
<linearGradient id="paint6_linear_812_932" x1="15.6588" y1="10.9755" x2="-5.86159" y2="4.62389" gradientUnits="userSpaceOnUse">
<stop stop-color="#A72B2B" stop-opacity="0"/>
<stop offset="1" stop-color="#42210B"/>
</linearGradient>
<linearGradient id="paint7_linear_812_932" x1="2.42168" y1="2.42168" x2="19.9654" y2="19.9654" gradientUnits="userSpaceOnUse">
<stop stop-color="#B3DAFE"/>
<stop offset="1" stop-color="#0182FC"/>
</linearGradient>
<linearGradient id="paint8_linear_812_932" x1="10" y1="11.0736" x2="10" y2="19.8943" gradientUnits="userSpaceOnUse">
<stop stop-color="#0182FC" stop-opacity="0"/>
<stop offset="1" stop-color="#024C67"/>
</linearGradient>
<linearGradient id="paint9_linear_812_932" x1="-2.85272" y1="-2.85272" x2="25.0355" y2="25.0355" gradientUnits="userSpaceOnUse">
<stop stop-color="#FE0364" stop-opacity="0"/>
<stop offset="0.3975" stop-color="#F70360" stop-opacity="0.398"/>
<stop offset="0.9701" stop-color="#E40257" stop-opacity="0.97"/>
<stop offset="1" stop-color="#E30256"/>
</linearGradient>
<linearGradient id="paint10_linear_812_932" x1="5.65934" y1="5.65933" x2="11.3257" y2="11.3257" gradientUnits="userSpaceOnUse">
<stop stop-color="#FE0364" stop-opacity="0"/>
<stop offset="0.3975" stop-color="#F70360" stop-opacity="0.398"/>
<stop offset="0.9701" stop-color="#E40257" stop-opacity="0.97"/>
<stop offset="1" stop-color="#E30256"/>
</linearGradient>
</defs>
</svg>
