<svg width="18" height="18" viewBox="0 0 18 18" fill="none" xmlns="http://www.w3.org/2000/svg">
<path d="M13.5 0H4.5C2.01472 0 0 2.01472 0 4.5V13.5C0 15.9853 2.01472 18 4.5 18H13.5C15.9853 18 18 15.9853 18 13.5V4.5C18 2.01472 15.9853 0 13.5 0Z" fill="url(#paint0_linear_812_807)"/>
<path d="M6.3 11.475C6.21134 11.475 6.12355 11.4576 6.04162 11.4237C5.9597 11.3898 5.88526 11.3401 5.82255 11.2774L4.02255 9.47745C3.95982 9.41476 3.91007 9.34033 3.87612 9.25841C3.84217 9.17649 3.82469 9.08868 3.82469 9C3.82469 8.91132 3.84217 8.82351 3.87612 8.74159C3.91007 8.65967 3.95982 8.58523 4.02255 8.52255L5.82255 6.72255C5.94918 6.59592 6.12092 6.52478 6.3 6.52478C6.47908 6.52478 6.65082 6.59592 6.77745 6.72255C6.90408 6.84918 6.97522 7.02092 6.97522 7.2C6.97522 7.37908 6.90408 7.55082 6.77745 7.67745L5.45445 9L6.77745 10.3225C6.87191 10.417 6.93625 10.5373 6.96232 10.6682C6.98839 10.7992 6.97502 10.935 6.92391 11.0584C6.87279 11.1817 6.78623 11.2872 6.67517 11.3613C6.56411 11.4355 6.43355 11.4751 6.3 11.475Z" fill="white"/>
<path d="M11.7 11.475C11.5665 11.4751 11.4359 11.4355 11.3248 11.3613C11.2138 11.2872 11.1272 11.1817 11.0761 11.0584C11.025 10.935 11.0116 10.7992 11.0377 10.6682C11.0638 10.5373 11.1281 10.417 11.2225 10.3225L12.5455 9L11.2225 7.67745C11.1598 7.61475 11.1101 7.54031 11.0762 7.45839C11.0422 7.37647 11.0248 7.28867 11.0248 7.2C11.0248 7.11133 11.0422 7.02353 11.0762 6.94161C11.1101 6.85968 11.1598 6.78525 11.2225 6.72255C11.3492 6.59592 11.5209 6.52478 11.7 6.52478C11.7887 6.52478 11.8765 6.54225 11.9584 6.57618C12.0403 6.61011 12.1147 6.65985 12.1774 6.72255L13.9774 8.52255C14.0402 8.58523 14.0899 8.65967 14.1239 8.74159C14.1578 8.82351 14.1753 8.91132 14.1753 9C14.1753 9.08868 14.1578 9.17649 14.1239 9.25841C14.0899 9.34033 14.0402 9.41476 13.9774 9.47745L12.1774 11.2774C12.1147 11.3401 12.0403 11.3898 11.9584 11.4237C11.8765 11.4576 11.7887 11.475 11.7 11.475Z" fill="white"/>
<path d="M8.1 12.825C8.03714 12.8249 7.9746 12.8161 7.91415 12.7989C7.74207 12.7497 7.59658 12.6342 7.50966 12.4777C7.42274 12.3213 7.40152 12.1367 7.45065 11.9646L9.25065 5.6646C9.27359 5.57781 9.31361 5.49646 9.36837 5.42532C9.42313 5.35419 9.49154 5.29469 9.56957 5.25031C9.64761 5.20594 9.73372 5.17757 9.82285 5.16688C9.91199 5.15619 10.0024 5.16339 10.0887 5.18805C10.175 5.21271 10.2555 5.25434 10.3256 5.31051C10.3956 5.36668 10.4537 5.43625 10.4965 5.51516C10.5393 5.59406 10.566 5.68072 10.5749 5.77005C10.5838 5.85938 10.5748 5.94959 10.5484 6.0354L8.74845 12.3354C8.70819 12.4764 8.62313 12.6004 8.50614 12.6887C8.38915 12.777 8.24659 12.8249 8.1 12.825Z" fill="white"/>
<defs>
<linearGradient id="paint0_linear_812_807" x1="2.07405" y1="2.07405" x2="16.4786" y2="16.4786" gradientUnits="userSpaceOnUse">
<stop stop-color="#9B8DFF"/>
<stop offset="0.252" stop-color="#7D79FD"/>
<stop offset="0.555" stop-color="#5F65FB"/>
<stop offset="0.815" stop-color="#4D58F9"/>
<stop offset="1" stop-color="#4654F9"/>
</linearGradient>
</defs>
</svg>
