<svg width="20" height="20" viewBox="0 0 20 20" fill="none" xmlns="http://www.w3.org/2000/svg">
<path d="M2.90323 8.70968C3.4377 8.70968 3.87097 8.2764 3.87097 7.74194C3.87097 7.20747 3.4377 6.77419 2.90323 6.77419C2.36876 6.77419 1.93548 7.20747 1.93548 7.74194C1.93548 8.2764 2.36876 8.70968 2.90323 8.70968Z" fill="#FFD55D"/>
<path d="M18.0645 3.54839C18.9553 3.54839 19.6774 2.82627 19.6774 1.93548C19.6774 1.0447 18.9553 0.322581 18.0645 0.322581C17.1737 0.322581 16.4516 1.0447 16.4516 1.93548C16.4516 2.82627 17.1737 3.54839 18.0645 3.54839Z" fill="#FFD55D"/>
<path d="M17.0968 13.2258C17.6312 13.2258 18.0645 12.7925 18.0645 12.2581C18.0645 11.7236 17.6312 11.2903 17.0968 11.2903C16.5623 11.2903 16.129 11.7236 16.129 12.2581C16.129 12.7925 16.5623 13.2258 17.0968 13.2258Z" fill="#FFD55D"/>
<path d="M1.93548 19.6774C2.82627 19.6774 3.54839 18.9553 3.54839 18.0645C3.54839 17.1737 2.82627 16.4516 1.93548 16.4516C1.0447 16.4516 0.322581 17.1737 0.322581 18.0645C0.322581 18.9553 1.0447 19.6774 1.93548 19.6774Z" fill="#FFD55D"/>
<path d="M12.9032 13.871C12.9032 13.1139 12.9032 12.5371 12.9032 12.5371C15.0081 11.4748 16.4516 9.2929 16.4516 6.77419C16.4516 3.21097 13.5632 0.322581 10 0.322581C6.43677 0.322581 3.54839 3.21097 3.54839 6.77419C3.54839 9.2929 4.99194 11.4748 7.09677 12.5371V13.871H12.9032Z" fill="#FFC239"/>
<path d="M10 0.322581C8.1429 0.322581 6.47419 1.11161 5.2971 2.36742C6.03516 7.04677 9.73193 10.7423 14.4119 11.4781C15.6665 10.3013 16.4516 8.63 16.4516 6.77419C16.4516 3.21097 13.5632 0.322581 10 0.322581Z" fill="#FFD55D"/>
<path d="M9.35484 13.871H8.70968V8.84323L7.83645 7.97L8.29258 7.51387L9.26032 8.48161C9.32097 8.54193 9.35484 8.62419 9.35484 8.70968V13.871Z" fill="#F1F1F3"/>
<path d="M11.2903 13.871H10.6452V8.70968C10.6452 8.62419 10.679 8.54193 10.7397 8.48161L11.7074 7.51387L12.1635 7.97L11.2903 8.84323V13.871Z" fill="#F1F1F3"/>
<path d="M7.09677 15.1613V16.129H12.9032C12.9032 15.8281 12.9032 15.4971 12.9032 15.1613H7.09677Z" fill="#393A3A"/>
<path d="M12.2581 17.4194C12.2581 18.6665 11.2471 19.6774 10 19.6774C8.7529 19.6774 7.74194 18.6665 7.74194 17.4194H12.2581Z" fill="#393A3A"/>
<path d="M13.2258 15.1613H6.77419C6.59613 15.1613 6.45161 15.0168 6.45161 14.8387V14.1935C6.45161 14.0155 6.59613 13.871 6.77419 13.871H13.2258C13.4039 13.871 13.5484 14.0155 13.5484 14.1935V14.8387C13.5484 15.0168 13.4039 15.1613 13.2258 15.1613Z" fill="#D5D6D8"/>
<path d="M13.2258 13.871H7.09677V14.1935C7.09677 14.55 7.38548 14.8387 7.74194 14.8387H13.5484V14.1935C13.5484 14.0155 13.4039 13.871 13.2258 13.871Z" fill="#F1F1F3"/>
<path d="M13.2258 17.4194H6.77419C6.59613 17.4194 6.45161 17.2748 6.45161 17.0968V16.4516C6.45161 16.2735 6.59613 16.129 6.77419 16.129H13.2258C13.4039 16.129 13.5484 16.2735 13.5484 16.4516V17.0968C13.5484 17.2748 13.4039 17.4194 13.2258 17.4194Z" fill="#D5D6D8"/>
<path d="M13.2258 16.129H7.09677V16.4516C7.09677 16.8081 7.38548 17.0968 7.74194 17.0968H13.5484V16.4516C13.5484 16.2735 13.4039 16.129 13.2258 16.129Z" fill="#F1F1F3"/>
<path d="M18.0645 0C17.3439 0 16.7152 0.396452 16.3823 0.982258C14.6787 1.08677 12.3787 2.18161 10.0006 3.96452C7.75935 2.28581 5.62032 1.24839 3.98032 1.02516C4.00419 1.24774 4.0329 1.46871 4.06452 1.68871C5.46903 1.92774 7.37452 2.8229 9.47064 4.37097C8.56742 5.08323 7.65935 5.88935 6.77419 6.77419C6.5029 7.04548 6.24226 7.31903 5.98613 7.59387C6.09194 7.79484 6.20258 7.99258 6.31548 8.18871C6.61097 7.86645 6.91452 7.54613 7.23032 7.23032C8.13613 6.32452 9.07452 5.50161 10.0065 4.77742C10.9068 5.47968 11.8352 6.29613 12.7694 7.23032C14.0855 8.54645 15.2623 9.96129 16.1932 11.339C15.9552 11.5732 15.8065 11.8984 15.8065 12.2581C15.8065 12.9697 16.3852 13.5484 17.0968 13.5484C17.2232 13.5484 17.3432 13.5245 17.459 13.4903C18.161 14.9139 18.469 16.1387 18.3613 17.0019C18.5723 17.0474 18.7852 17.0874 18.9987 17.1258C19.1419 16.1145 18.8126 14.7629 18.0155 13.1619C18.2448 12.9287 18.3871 12.61 18.3871 12.2581C18.3871 11.5465 17.8084 10.9677 17.0968 10.9677C16.9781 10.9677 16.8652 10.989 16.7558 11.0194C16.5284 10.681 16.2874 10.341 16.0323 10.0003C17.8406 7.58419 18.9171 5.28323 19.021 3.61613C19.6048 3.28226 20 2.65484 20 1.93548C20 0.868064 19.1319 0 18.0645 0ZM17.0968 11.6129C17.4526 11.6129 17.7419 11.9023 17.7419 12.2581C17.7419 12.6139 17.4526 12.9032 17.0968 12.9032C16.741 12.9032 16.4516 12.6139 16.4516 12.2581C16.4516 11.9023 16.741 11.6129 17.0968 11.6129ZM15.6242 9.46839C14.9023 8.55258 14.0932 7.64193 13.2258 6.77419C12.3352 5.88355 11.4306 5.08064 10.5368 4.37516C12.6271 2.83419 14.6481 1.83355 16.1535 1.64548C16.1387 1.74032 16.129 1.83677 16.129 1.93548C16.129 3.0029 16.9971 3.87097 18.0645 3.87097C18.1619 3.87097 18.2571 3.86129 18.351 3.84742C18.1623 5.32323 17.1752 7.36323 15.6242 9.46839ZM18.0645 3.22581C17.3529 3.22581 16.7742 2.6471 16.7742 1.93548C16.7742 1.22387 17.3529 0.645161 18.0645 0.645161C18.7761 0.645161 19.3548 1.22387 19.3548 1.93548C19.3548 2.6471 18.7761 3.22581 18.0645 3.22581Z" fill="#81B4FC"/>
<path d="M1.93548 20C2.65548 20 3.28387 19.6039 3.6171 19.019C4.65097 18.9545 5.93839 18.5181 7.36516 17.7419H7.44161C7.60129 19.0129 8.68645 20 10 20C11.3135 20 12.3987 19.0129 12.5584 17.7419H12.6348C14.1997 18.5929 15.5742 19.0271 16.6465 19.0271C17.3881 19.0271 17.9858 18.8203 18.4032 18.4029C19.3639 17.4423 19.2226 15.5852 18.0158 13.1613C18.2448 12.9287 18.3871 12.61 18.3871 12.2581C18.3871 11.5465 17.8084 10.9677 17.0968 10.9677C16.9781 10.9677 16.8652 10.989 16.7558 11.0194C16.5284 10.6813 16.2877 10.3416 16.0329 10.0013C17.8452 7.58161 18.9177 5.29065 19.021 3.61613C19.6048 3.28226 20 2.65484 20 1.93548C20 0.868064 19.1319 0 18.0645 0C17.3439 0 16.7152 0.396452 16.3823 0.982258C15.7439 1.02129 15.0226 1.19936 14.2432 1.50161C13.081 0.564194 11.6058 0 10 0C8.39194 0 6.91484 0.565484 5.75194 1.50516C3.91806 0.79871 2.41742 0.776452 1.59677 1.59677C0.636129 2.55742 0.777419 4.41452 1.98419 6.83839C1.75516 7.07129 1.6129 7.39 1.6129 7.74194C1.6129 8.45355 2.19161 9.03226 2.90323 9.03226C3.13677 9.03226 3.35935 8.96903 3.55323 8.85581C3.67387 9.23226 3.82581 9.59581 4.00871 9.94258C2.20032 12.341 1.08742 14.6645 0.982258 16.3823C0.396452 16.7152 0 17.3439 0 18.0645C0 19.1319 0.868064 20 1.93548 20ZM7.24226 12.2494C6.20581 11.7265 5.36548 10.9426 4.7829 10C5.50581 9.07 6.32645 8.13419 7.23032 7.23032C8.13613 6.32452 9.07452 5.50161 10.0065 4.77742C10.9068 5.47968 11.8352 6.29613 12.7694 7.23032C13.6603 8.12129 14.4881 9.05774 15.2194 9.9971C15.2087 10.0145 15.1965 10.031 15.1855 10.0481C15.1829 10.0513 15.1806 10.0545 15.1781 10.0577L15.1787 10.0584C14.5977 10.9742 13.7726 11.7371 12.7584 12.249C12.649 12.3042 12.5806 12.4155 12.5806 12.5371V13.5484H11.2903V8.84323L12.1635 7.97L11.7074 7.51387L10.7397 8.48161C10.679 8.54193 10.6452 8.62419 10.6452 8.70968V13.5484H9.35484V8.70968C9.35484 8.62419 9.32097 8.54193 9.26032 8.48161L8.29258 7.51387L7.83645 7.97L8.70968 8.84323V13.5484H7.41935V12.5371C7.41935 12.4155 7.35097 12.3042 7.24226 12.2494ZM16.129 6.77419C16.129 7.69516 15.9239 8.57871 15.5506 9.3771C14.8471 8.49194 14.0642 7.6129 13.2258 6.77419C12.3352 5.88355 11.4306 5.08064 10.5368 4.37516C11.7877 3.45323 13.0132 2.72419 14.1187 2.24806C15.35 3.37 16.129 4.98097 16.129 6.77419ZM13.2258 14.1935L13.2261 14.8387H6.77419V14.1935H13.2258ZM12.5806 15.4839V15.8065H7.41935V15.4839H12.5806ZM13.2258 16.4516L13.2261 17.0968H6.77419V16.4516H13.2258ZM10 19.3548C9.0429 19.3548 8.24806 18.6558 8.09355 17.7419H11.9065C11.7519 18.6558 10.9571 19.3548 10 19.3548ZM17.7419 12.2581C17.7419 12.6139 17.4526 12.9032 17.0968 12.9032C16.741 12.9032 16.4516 12.6139 16.4516 12.2581C16.4516 11.9023 16.741 11.6129 17.0968 11.6129C17.4526 11.6129 17.7419 11.9023 17.7419 12.2581ZM17.0968 13.5484C17.2232 13.5484 17.3432 13.5245 17.459 13.4903C18.4835 15.5687 18.67 17.2239 17.9471 17.9471C17.2394 18.6545 15.6755 18.5 13.6819 17.5529C13.7987 17.4358 13.871 17.2745 13.871 17.0968V16.4516C13.871 16.0958 13.5816 15.8065 13.2258 15.8065V15.4839C13.5816 15.4839 13.871 15.1945 13.871 14.8387V14.1935C13.871 13.8377 13.5816 13.5484 13.2258 13.5484V12.7326C14.2155 12.1968 15.0323 11.4406 15.6329 10.5432C15.829 10.8094 16.0148 11.0748 16.1932 11.339C15.9552 11.5732 15.8065 11.8984 15.8065 12.2581C15.8065 12.9697 16.3852 13.5484 17.0968 13.5484ZM18.0645 0.645161C18.7761 0.645161 19.3548 1.22387 19.3548 1.93548C19.3548 2.6471 18.7761 3.22581 18.0645 3.22581C17.3529 3.22581 16.7742 2.6471 16.7742 1.93548C16.7742 1.22387 17.3529 0.645161 18.0645 0.645161ZM18.0645 3.87097C18.1619 3.87097 18.2571 3.86129 18.351 3.84742C18.21 4.95903 17.6197 6.38065 16.6755 7.91419C16.7381 7.54161 16.7742 7.16129 16.7742 6.77419C16.7742 4.9071 16.0148 3.21419 14.789 1.98774C15.2761 1.81677 15.7361 1.69774 16.1535 1.64548C16.1387 1.74032 16.129 1.83677 16.129 1.93548C16.129 3.0029 16.9971 3.87097 18.0645 3.87097ZM10 0.645161C11.3268 0.645161 12.5526 1.07323 13.5568 1.79258C12.439 2.30581 11.231 3.04194 10.0006 3.96452C8.76 3.03548 7.55064 2.30258 6.43968 1.79516C7.44452 1.07419 8.67194 0.645161 10 0.645161ZM2.0529 2.0529C2.61 1.49581 3.73903 1.47871 5.20935 1.98935C4.04484 3.15516 3.31 4.74419 3.23968 6.50161C3.13032 6.47194 3.01839 6.45161 2.90323 6.45161C2.77677 6.45161 2.65677 6.47548 2.54097 6.50968C1.51645 4.43129 1.32968 2.77613 2.0529 2.0529ZM2.90323 8.3871C2.54742 8.3871 2.25806 8.09774 2.25806 7.74194C2.25806 7.38613 2.54742 7.09677 2.90323 7.09677C3.02323 7.09677 3.13935 7.13 3.24 7.19161C3.26032 7.5271 3.30419 7.8571 3.37194 8.17968C3.25097 8.30935 3.08452 8.3871 2.90323 8.3871ZM3.87097 6.77419C3.87097 4.98161 4.64935 3.37129 5.88032 2.24968C6.95613 2.70774 8.17742 3.41613 9.47064 4.37097C8.56742 5.08323 7.65935 5.88935 6.77419 6.77419C5.92097 7.62742 5.14129 8.50258 4.44774 9.37387C4.07548 8.57645 3.87097 7.69387 3.87097 6.77419ZM4.36871 10.5458C4.96936 11.4419 5.78548 12.1974 6.77419 12.7326V13.5484C6.41839 13.5484 6.12903 13.8377 6.12903 14.1935V14.8387C6.12903 15.1945 6.41839 15.4839 6.77419 15.4839V15.8065C6.41839 15.8065 6.12903 16.0958 6.12903 16.4516V17.0968C6.12903 17.2739 6.20097 17.4345 6.31677 17.5513C5.3929 17.9903 4.55548 18.2632 3.8471 18.3523C3.86129 18.2581 3.87097 18.1626 3.87097 18.0645C3.87097 16.9971 3.0029 16.129 1.93548 16.129C1.83677 16.129 1.74032 16.1387 1.64548 16.1532C1.83355 14.65 2.83161 12.6329 4.36871 10.5458ZM1.93548 16.7742C2.6471 16.7742 3.22581 17.3529 3.22581 18.0645C3.22581 18.7761 2.6471 19.3548 1.93548 19.3548C1.22387 19.3548 0.645161 18.7761 0.645161 18.0645C0.645161 17.3529 1.22387 16.7742 1.93548 16.7742Z" fill="black"/>
</svg>
