<svg width="21" height="20" viewBox="0 0 21 20" fill="none" xmlns="http://www.w3.org/2000/svg">
<path d="M6.44772 10.3997C6.43505 10.3997 6.42239 10.3992 6.40957 10.3985L0.903254 10.0547C0.693749 10.0417 0.50576 9.92195 0.405357 9.73777C0.305106 9.5536 0.306327 9.33067 0.408866 9.14756C0.437705 9.09599 1.13168 7.87238 2.45325 6.80518C4.23915 5.36322 6.31527 4.89554 8.45701 5.45279C8.63477 5.49903 8.78217 5.62293 8.85847 5.79001C8.93476 5.9571 8.93171 6.14966 8.85007 6.31415L6.99444 10.0603C6.89099 10.2691 6.67843 10.3997 6.44772 10.3997Z" fill="#FF5B5B"/>
<path d="M10.8867 20.0015C10.7863 20.0015 10.6859 19.9767 10.5948 19.927C10.4106 19.8266 10.2908 19.6388 10.2777 19.4293L9.93406 13.923C9.91881 13.6778 10.052 13.4472 10.2722 13.3381L14.0184 11.4823C14.1831 11.4008 14.3755 11.3978 14.5425 11.4741C14.7098 11.5502 14.8335 11.6978 14.8798 11.8755C15.4372 14.0173 14.9695 16.0934 13.5274 17.8793C12.4603 19.2008 11.2366 19.8947 11.185 19.9236C11.0924 19.9755 10.9895 20.0015 10.8867 20.0015Z" fill="#FF193D"/>
<path d="M19.3523 4.9256L15.407 0.980278C15.2489 0.822197 15.0169 0.763298 14.8026 0.826622C12.1614 1.60787 9.99327 2.83316 8.35798 4.46829C8.01694 4.80948 7.68933 5.1792 7.38446 5.56708C6.49792 6.69425 5.75741 8.02695 5.18367 9.52827C4.81822 10.4851 4.52067 11.5102 4.29927 12.575C3.91261 14.4349 3.89186 15.7679 3.89109 15.8238C3.88911 15.9881 3.9535 16.1465 4.06978 16.2627C4.18422 16.3772 4.33955 16.4414 4.5013 16.4414H4.50877C4.56477 16.4408 5.89779 16.4201 7.75754 16.0334C8.8223 15.812 9.84739 15.5145 10.8044 15.1489C12.3056 14.5751 13.6383 13.8348 14.7652 12.9484C15.1534 12.6434 15.5231 12.3158 15.8643 11.9746C17.4996 10.3393 18.7249 8.17115 19.506 5.53C19.5694 5.31561 19.5104 5.08368 19.3523 4.9256Z" fill="#E1F1FA"/>
<path d="M8.17441 15.1141L5.21846 12.1581C5.00026 11.9399 4.65343 11.919 4.41051 12.1095C4.22175 12.2575 4.04216 12.4165 3.87675 12.5819C1.82001 14.6386 1.75638 17.8254 1.7547 17.96C1.75256 18.1245 1.81695 18.2829 1.93338 18.3991C2.04782 18.5137 2.203 18.578 2.36475 18.578C2.36734 18.578 2.36994 18.578 2.37253 18.5778C2.50711 18.5761 5.69408 18.5125 7.75067 16.4558C7.91608 16.2904 8.07508 16.1108 8.22309 15.922C8.41352 15.6791 8.39261 15.3323 8.17441 15.1141Z" fill="#FFF261"/>
<path d="M5.23082 9.4062L3.41731 11.2199C3.30286 11.3342 3.23847 11.4893 3.23847 11.6512C3.23847 11.813 3.30286 11.9682 3.41731 12.0826L8.24994 16.9152C8.36423 17.0297 8.51941 17.0939 8.68131 17.0939C8.84321 17.0939 8.99824 17.0297 9.11268 16.9152L10.9262 15.1017L5.23082 9.4062Z" fill="#1B3B6B"/>
<path d="M13.1476 9.0464C12.6504 9.0464 12.1829 8.85276 11.8314 8.5012C11.1056 7.77549 11.1056 6.59476 11.8314 5.8689C12.1829 5.51734 12.6504 5.3237 13.1476 5.3237C13.6447 5.3237 14.1122 5.51734 14.4638 5.8689C14.8154 6.22046 15.009 6.68784 15.009 7.18512C15.009 7.68226 14.8154 8.14963 14.4638 8.5012C14.1122 8.85276 13.6447 9.0464 13.1476 9.0464Z" fill="#06CCAB"/>
<path d="M13.1474 9.64317C12.4908 9.64317 11.8736 9.38743 11.4094 8.92326C10.451 7.96485 10.451 6.4054 11.4094 5.44699C11.8736 4.98282 12.491 4.72708 13.1474 4.72708C13.804 4.72708 14.4212 4.98282 14.8856 5.44699C15.3499 5.91132 15.6055 6.52854 15.6055 7.18512C15.6055 7.84171 15.3499 8.45893 14.8856 8.92326C14.4212 9.38743 13.804 9.64317 13.1474 9.64317ZM13.1474 5.94733C12.8169 5.94733 12.5059 6.07611 12.2722 6.30988C11.7897 6.79252 11.7897 7.57773 12.2722 8.06037C12.5059 8.29414 12.8169 8.42292 13.1474 8.42292C13.4781 8.42292 13.7889 8.29414 14.0227 8.06037C14.2564 7.82661 14.3852 7.51578 14.3852 7.18512C14.3852 6.85447 14.2564 6.54364 14.0227 6.30988C13.7889 6.07611 13.4781 5.94733 13.1474 5.94733Z" fill="#1B3B6B"/>
<path d="M20.1525 0.180258C20.036 0.0638332 19.8767 -0.00162713 19.7132 0.00157722C19.6227 0.00264534 17.4658 0.0389613 14.8026 0.826622L19.506 5.53C20.2936 2.86673 20.3299 0.709892 20.331 0.619407C20.3331 0.454917 20.2687 0.29653 20.1525 0.180258Z" fill="#FF5B5B"/>
<path d="M19.3523 4.9256L17.3796 2.95294L4.06978 16.2627C4.18422 16.3772 4.3394 16.4414 4.50114 16.4414H4.50877C4.56462 16.4408 5.89764 16.4201 7.75754 16.0334C8.8223 15.812 9.84724 15.5145 10.8043 15.1489C12.3056 14.5751 13.6383 13.8348 14.7652 12.9484C15.1532 12.6434 15.5231 12.3158 15.8641 11.9746C17.4994 10.3393 18.7247 8.17115 19.5058 5.53C19.5694 5.31561 19.5104 5.08368 19.3523 4.9256Z" fill="#CDEBFC"/>
<path d="M8.17441 15.1141L6.69644 13.6361L1.93323 18.3991V18.3993C2.04782 18.5137 2.203 18.578 2.36475 18.578H2.37238C2.50711 18.5763 5.69393 18.5125 7.75067 16.4558C7.91608 16.2904 8.07508 16.1108 8.22294 15.922C8.41352 15.6791 8.39277 15.3323 8.17441 15.1141Z" fill="#FDBF00"/>
<path d="M8.07859 12.254L5.83355 14.499L8.24994 16.9154C8.36423 17.0297 8.51941 17.094 8.68131 17.094C8.84321 17.094 8.99824 17.0297 9.11268 16.9154L10.9262 15.1017L8.07859 12.254Z" fill="#001035"/>
<path d="M14.4638 5.8689C14.4637 5.8689 14.4637 5.8689 14.4637 5.8689L11.8314 8.5012H11.8315C12.1829 8.85276 12.6504 9.0464 13.1476 9.0464C13.6447 9.0464 14.1122 8.85276 14.4638 8.5012C14.8154 8.14963 15.009 7.68226 15.009 7.18512C15.0089 6.68799 14.8154 6.22046 14.4638 5.8689Z" fill="#1CADB5"/>
<path d="M14.8856 5.44699L14.0227 6.30988C14.2564 6.54364 14.3852 6.85447 14.3852 7.18512C14.3852 7.51578 14.2564 7.82661 14.0227 8.06037C13.7889 8.29414 13.4781 8.42292 13.1474 8.42292C12.8168 8.42292 12.5059 8.29414 12.2722 8.06037C12.2722 8.06037 12.2722 8.06037 12.2722 8.06022L11.4093 8.9231V8.92326C11.8736 9.38743 12.4908 9.64317 13.1474 9.64317C13.804 9.64317 14.4212 9.38743 14.8856 8.92326C15.3497 8.45893 15.6055 7.84171 15.6055 7.18512C15.6055 6.52854 15.3497 5.91132 14.8856 5.44699Z" fill="#001035"/>
<path d="M20.1523 0.180105L17.1543 3.17831L19.506 5.53C20.2936 2.86673 20.3299 0.709892 20.331 0.619407C20.3331 0.454917 20.2687 0.29653 20.1523 0.180105Z" fill="#FF193D"/>
</svg>
