<svg width="20" height="20" viewBox="0 0 20 20" fill="none" xmlns="http://www.w3.org/2000/svg">
<path d="M2.32773 18.77L0 20L1.23 17.6723L2.44453 17.5555L2.32773 18.77Z" fill="#174461"/>
<path d="M2.98437 14.3528L1.23 17.6723L2.32773 18.77L5.64721 17.0156L2.98437 14.3528Z" fill="#FFEBB4"/>
<path d="M19.4492 0.550752C20.1836 1.28509 20.1836 2.47931 19.4492 3.2136L18.1006 4.56224L15.7784 4.23712L15.4377 1.89938L16.7864 0.550752C17.5207 -0.183584 18.7149 -0.183584 19.4492 0.550752Z" fill="#FF755C"/>
<path d="M16.4366 6.22669L5.64721 17.0156L3.46308 16.5369L15.1049 3.56364C15.1049 3.56364 16.4362 6.22622 16.4366 6.22669Z" fill="#FFB14E"/>
<path d="M15.7707 4.22934L3.46308 16.5369L2.98437 14.3528L13.7738 3.56383L15.7707 4.22934Z" fill="#FFCE47"/>
<path d="M15.4377 1.89938L13.7738 3.56383L16.4362 6.22622C16.4366 6.22669 18.1006 4.56224 18.1006 4.56224L15.4377 1.89938Z" fill="#174461"/>
</svg>
