<svg width="23" height="16" viewBox="0 0 23 16" fill="none" xmlns="http://www.w3.org/2000/svg">
<path d="M16.56 13.78C16.6867 13.78 16.8133 13.7333 16.9133 13.6333C17.1067 13.44 17.1067 13.12 16.9133 12.9267L12.5667 8.58001C12.2467 8.26001 12.2467 7.74001 12.5667 7.42001L16.9133 3.07335C17.1067 2.88001 17.1067 2.56001 16.9133 2.36668C16.72 2.17335 16.4 2.17335 16.2067 2.36668L11.86 6.71335C11.52 7.05335 11.3267 7.51335 11.3267 8.00001C11.3267 8.48668 11.5134 8.94668 11.86 9.28668L16.2067 13.6333C16.3067 13.7267 16.4333 13.78 16.56 13.78Z" fill="#01F5F6"/>
<path d="M10.56 13.78C10.6867 13.78 10.8133 13.7333 10.9133 13.6333C11.1067 13.44 11.1067 13.12 10.9133 12.9267L6.56668 8.58001C6.24668 8.26001 6.24668 7.74001 6.56668 7.42001L10.9133 3.07335C11.1067 2.88001 11.1067 2.56001 10.9133 2.36668C10.72 2.17335 10.4 2.17335 10.2067 2.36668L5.86002 6.71335C5.52002 7.05335 5.32668 7.51335 5.32668 8.00001C5.32668 8.48668 5.51335 8.94668 5.86002 9.28668L10.2067 13.6333C10.3067 13.7267 10.4333 13.78 10.56 13.78Z" fill="#01F5F6"/>
</svg>
