<svg width="22" height="16" viewBox="0 0 22 16" fill="none" xmlns="http://www.w3.org/2000/svg">
<path d="M16.0598 13.78C16.1864 13.78 16.3131 13.7333 16.4131 13.6333C16.6064 13.44 16.6064 13.12 16.4131 12.9267L12.0664 8.58001C11.7464 8.26001 11.7464 7.74001 12.0664 7.42001L16.4131 3.07335C16.6064 2.88001 16.6064 2.56001 16.4131 2.36668C16.2198 2.17335 15.8998 2.17335 15.7064 2.36668L11.3598 6.71335C11.0198 7.05335 10.8264 7.51335 10.8264 8.00001C10.8264 8.48668 11.0131 8.94668 11.3598 9.28668L15.7064 13.6333C15.8064 13.7267 15.9331 13.78 16.0598 13.78Z" fill="#01F5F6"/>
<path d="M10.0598 13.78C10.1864 13.78 10.3131 13.7333 10.4131 13.6333C10.6064 13.44 10.6064 13.12 10.4131 12.9267L6.06644 8.58001C5.74644 8.26001 5.74644 7.74001 6.06644 7.42001L10.4131 3.07335C10.6064 2.88001 10.6064 2.56001 10.4131 2.36668C10.2198 2.17335 9.89977 2.17335 9.70644 2.36668L5.35977 6.71335C5.01977 7.05335 4.82644 7.51335 4.82644 8.00001C4.82644 8.48668 5.01311 8.94668 5.35977 9.28668L9.70644 13.6333C9.80644 13.7267 9.93311 13.78 10.0598 13.78Z" fill="#01F5F6"/>
</svg>
