<svg width="27" height="30" viewBox="0 0 27 30" fill="none" xmlns="http://www.w3.org/2000/svg">
<path d="M16.2448 24.1121C13.175 22.3764 6.3311 17.0706 5.78037 4.07777L1.25016 5.93923C0.923508 20.8521 8.47152 26.747 11.7401 28.5952C12.6202 29.0928 13.7276 29.0654 14.5685 28.5108C15.8866 27.6414 17.9737 26.0133 19.9496 23.4127C19.6316 23.6488 19.3367 23.8538 19.0731 24.0276C18.2322 24.5822 17.1248 24.6097 16.2448 24.1121Z" fill="#E6E7E8"/>
<path d="M25.1758 5.93923L13.2094 1.02517L1.25016 5.93923C0.923508 20.8521 8.47152 26.747 11.7401 28.5952C12.6202 29.0928 13.7276 29.0654 14.5685 28.5107C17.6721 26.4636 25.0391 20.2146 25.1777 6.95299C25.1782 6.93473 25.1811 6.25187 25.1758 5.93923Z" fill="white"/>
<path d="M0.220717 5.91694C0.229662 5.51029 0.479413 5.14737 0.857161 4.99214L12.8164 0.0780169C13.0681 -0.0253439 13.3506 -0.0253439 13.6021 0.0779529L25.5685 4.99201C25.9481 5.14789 26.1983 5.5133 26.2054 5.92187C26.3581 14.923 22.9051 24.2415 15.1373 29.3649C13.9814 30.1274 12.5692 30.2473 11.2315 29.4862C7.81326 27.5413 -0.117905 21.3788 0.220717 5.91694ZM2.27021 6.62869C2.18848 20.4956 9.19497 25.9776 12.2488 27.7042C12.7977 28.0147 13.485 27.996 13.9996 27.6565C20.9725 23.0574 24.1395 14.7073 24.1492 6.62612L13.2095 2.13377L2.27021 6.62869Z" fill="#3E4D6C"/>
<path d="M17.6606 12.8791H15.6013V11.0626C15.6013 9.73348 14.5283 8.65223 13.2094 8.65223C11.8905 8.65223 10.8175 9.73355 10.8175 11.0626V12.8791H8.75821V11.0626C8.75821 8.60343 10.755 6.60275 13.2094 6.60275C15.6638 6.60275 17.6606 8.60343 17.6606 11.0626V12.8791Z" fill="#3E4D6C"/>
<path d="M17.1349 20.8094H9.28391C8.57307 20.8094 7.99686 20.2359 7.99686 19.5286V13.379C7.99686 12.6716 8.57307 12.0982 9.28391 12.0982H17.135C17.8458 12.0982 18.422 12.6716 18.422 13.379V19.5286C18.4219 20.2359 17.8457 20.8094 17.1349 20.8094Z" fill="#0795FE"/>
<path d="M14.4964 15.5841C14.4964 14.8767 13.9202 14.3033 13.2094 14.3033C12.4986 14.3033 11.9224 14.8767 11.9224 15.5841C11.9224 16.0028 12.1251 16.3734 12.4372 16.6071V18.521H13.9816V16.6071C14.2937 16.3734 14.4964 16.0028 14.4964 15.5841Z" fill="white"/>
</svg>
