<svg width="25" height="19" viewBox="0 0 25 19" fill="none" xmlns="http://www.w3.org/2000/svg">
<path d="M18.5 7.5H17.24C16.8659 6.051 16.0928 4.73599 15.0086 3.7044C13.9245 2.6728 12.5727 1.96599 11.1069 1.66428C9.64112 1.36256 8.12008 1.47804 6.71664 1.99759C5.3132 2.51714 4.08363 3.41993 3.16764 4.60338C2.25165 5.78683 1.68598 7.20348 1.5349 8.69235C1.38381 10.1812 1.65338 11.6826 2.31296 13.026C2.97255 14.3693 3.9957 15.5007 5.26617 16.2916C6.53663 17.0824 8.00347 17.5011 9.49999 17.5H18.5C19.8261 17.5 21.0978 16.9732 22.0355 16.0355C22.9732 15.0979 23.5 13.8261 23.5 12.5C23.5 11.1739 22.9732 9.90215 22.0355 8.96447C21.0978 8.02678 19.8261 7.5 18.5 7.5Z" stroke="#01F7F8" stroke-width="2" stroke-linecap="round" stroke-linejoin="round"/>
</svg>
