<svg width="31" height="31" viewBox="0 0 31 31" fill="none" xmlns="http://www.w3.org/2000/svg">
<path d="M11.6249 22.927C11.4829 22.927 11.3279 22.8882 11.1987 22.8236C10.2041 22.3199 9.35162 21.5707 8.73162 20.6407C8.21495 19.8657 8.21495 18.8711 8.73162 18.0961C9.35162 17.1661 10.2041 16.417 11.1987 15.9261C11.6766 15.6807 12.2579 15.8874 12.5033 16.3653C12.7487 16.8432 12.5549 17.4245 12.0641 17.6699C11.3666 18.0186 10.7724 18.5482 10.3462 19.194C10.2687 19.3103 10.2687 19.4653 10.3462 19.5945C10.7724 20.2403 11.3666 20.7699 12.0641 21.1186C12.542 21.3641 12.7358 21.9453 12.5033 22.4232C12.3224 22.7332 11.9737 22.927 11.6249 22.927Z" fill="white"/>
<path d="M19.6463 22.9271C19.2846 22.9271 18.9488 22.7334 18.7809 22.3975C18.5355 21.9196 18.7292 21.3384 19.22 21.093C19.9175 20.7442 20.5117 20.2146 20.938 19.5688C21.0155 19.4525 21.0155 19.2975 20.938 19.1684C20.5117 18.5225 19.9175 17.993 19.22 17.6442C18.7421 17.3988 18.5484 16.8175 18.7809 16.3396C19.0263 15.8617 19.6075 15.668 20.0855 15.9005C21.08 16.4042 21.9325 17.1534 22.5525 18.0834C23.0692 18.8584 23.0692 19.853 22.5525 20.628C21.9325 21.558 21.08 22.3071 20.0855 22.798C19.9305 22.8884 19.7884 22.9271 19.6463 22.9271Z" fill="white"/>
<path d="M19.375 29.3856H11.625C4.61129 29.3856 1.61462 26.3889 1.61462 19.3752V11.6252C1.61462 4.61141 4.61129 1.61475 11.625 1.61475H19.375C26.3888 1.61475 29.3855 4.61141 29.3855 11.6252V19.3752C29.3855 26.3889 26.3888 29.3856 19.375 29.3856ZM11.625 3.55225C5.67046 3.55225 3.55212 5.67058 3.55212 11.6252V19.3752C3.55212 25.3297 5.67046 27.4481 11.625 27.4481H19.375C25.3296 27.4481 27.448 25.3297 27.448 19.3752V11.6252C27.448 5.67058 25.3296 3.55225 19.375 3.55225H11.625Z" fill="white"/>
<path d="M2.88037 11.3152C2.35079 11.3152 1.91162 10.876 1.91162 10.3464C1.91162 9.81683 2.33787 9.37766 2.88037 9.37766L27.7062 9.36475C28.2358 9.36475 28.675 9.80391 28.675 10.3335C28.675 10.8631 28.2487 11.3022 27.7062 11.3022L2.88037 11.3152Z" fill="white"/>
</svg>
