<svg width="46" height="27" viewBox="0 0 46 27" fill="none" xmlns="http://www.w3.org/2000/svg">
<path d="M0 0.00137834V26.911H6.67109V9.6088L18.5308 21.707C19.111 22.3285 19.7448 22.8948 20.4245 23.3991L20.8417 23.7086L23.4578 25.2653L25.0275 25.977C25.5362 26.1401 26.6146 26.4751 26.8588 26.5107C27.1029 26.5463 27.8616 26.8221 28.2104 26.8666C28.5871 26.9552 28.9723 27 29.3588 27H46V20.1058H30.0623C29.731 20.1058 29.3995 20.059 29.0742 19.9945C28.9856 19.9769 28.888 19.9561 28.7773 19.9279C28.6435 19.8938 26.728 19.2607 26.5536 19.2162C26.414 19.1806 24.6351 18.0449 23.763 17.4815L6.75829 0.00137834H0Z" fill="#3F3FD5"/>
<path d="M35.5715 0.00137834H46V6.94007C41.4363 6.92524 32.2567 6.90449 32.0474 6.94007C31.7858 6.98455 29.8237 7.56277 29.5621 7.74069C29.3005 7.9186 28.2104 8.89713 27.6436 9.47536C27.3325 9.79276 27.0172 10.4773 26.7936 11.0578C26.6198 11.509 26.5198 11.9851 26.4525 12.4654C26.3173 13.4306 26.339 14.4122 26.5167 15.3701L26.5536 15.569L26.1578 15.2428C25.6673 14.8387 25.221 14.3813 24.8267 13.8785C24.4097 13.3467 24.0534 12.7676 23.7651 12.1525L23.614 11.8303C23.3655 11.3003 23.1826 10.7404 23.0696 10.1638C22.9798 9.70598 22.9346 9.24012 22.9346 8.77312V8.56197C22.9346 8.01554 22.9822 7.4702 23.0768 6.93245L23.0857 6.88177C23.1882 6.29914 23.3357 5.72432 23.5722 5.18421C23.7651 4.74352 23.9967 4.27275 24.1991 4.00447C24.6351 3.42624 24.7223 3.29281 25.4635 2.49219C27.9022 -0.141865 32.0294 0.00137834 35.5715 0.00137834Z" fill="#3F3FD5"/>
</svg>
