<svg width="30" height="30" viewBox="0 0 30 30" fill="none" xmlns="http://www.w3.org/2000/svg">
<path d="M11.56 16.4985C11.3313 16.3435 11.2647 16.0335 11.4198 15.8047C11.5674 15.5759 11.8775 15.5094 12.1063 15.6571L13.7599 16.7422L17.185 12.2762C17.3474 12.0621 17.6648 12.0178 17.879 12.1875C18.1004 12.3499 18.1447 12.6672 17.975 12.8814L14.2913 17.7018C14.1363 17.9232 13.8337 17.9823 13.6048 17.8347L11.56 16.4985ZM25.6078 25.6077C22.8912 28.3169 19.1412 30 15 30C9.24209 30 4.24467 26.752 1.72735 21.9907L0 23.7255V15.0001H8.72543L7.00539 16.72C7.7953 20.411 11.0729 23.1792 15 23.1792C17.2589 23.1792 19.3036 22.2638 20.78 20.78L25.6078 25.6077ZM30 15.0001H21.2747L22.9946 13.2801C22.2712 9.88435 19.4365 7.27121 15.9375 6.87254V0.0296631C21.2969 0.361757 25.8957 3.50641 28.2726 8.00204L30 6.27463V15.0001ZM15 0V8.72543L13.2801 7.00551C9.89172 7.72891 7.27852 10.5561 6.87254 14.0624H0.0296631C0.361757 8.70332 3.50647 4.10433 8.00198 1.72741L6.27469 0H15Z" fill="url(#paint0_linear_142_1677)"/>
<defs>
<linearGradient id="paint0_linear_142_1677" x1="7.22675" y1="27.8978" x2="22.2832" y2="1.81936" gradientUnits="userSpaceOnUse">
<stop offset="0.0437" stop-color="#008FE7"/>
<stop offset="0.7537" stop-color="#00E9D3"/>
</linearGradient>
</defs>
</svg>
