<svg width="24" height="30" viewBox="0 0 24 30" fill="none" xmlns="http://www.w3.org/2000/svg">
<path fill-rule="evenodd" clip-rule="evenodd" d="M19.0153 17.081L13.7127 21.4296L16.5564 27.959C16.6478 28.1687 16.9393 28.1901 17.0611 27.9961L18.8968 25.0707L22.3074 25.7615C22.5339 25.8073 22.7183 25.5833 22.6269 25.3733L19.0153 17.081Z" fill="#FE646F"/>
<path fill-rule="evenodd" clip-rule="evenodd" d="M19.0153 17.081L18.3142 17.656L21.6753 25.3734C21.7148 25.464 21.7029 25.5571 21.6584 25.6301L22.3074 25.7616C22.534 25.8074 22.7184 25.5834 22.6269 25.3734L19.0153 17.081ZM16.3829 27.5606L18.0526 24.8998L18.8969 25.0708L17.0611 27.9962C16.9393 28.1902 16.6477 28.1688 16.5564 27.959L16.3829 27.5606Z" fill="#FD4755"/>
<path fill-rule="evenodd" clip-rule="evenodd" d="M11.1923 21.0923L7.37976 29.1905C7.28232 29.3976 6.99018 29.4107 6.87415 29.2132L5.125 26.2365L1.69547 26.8291C1.46768 26.8684 1.28992 26.6392 1.38755 26.4319L5.1584 18.4223L11.1923 21.0923Z" fill="#FE646F"/>
<path fill-rule="evenodd" clip-rule="evenodd" d="M11.1924 21.0923L7.37982 29.1905C7.28238 29.3976 6.99018 29.4107 6.87415 29.2132L5.12506 26.2365L1.69547 26.8291C1.46768 26.8684 1.28999 26.6392 1.38767 26.4318L1.6195 25.9394L4.64349 25.4169L6.3927 28.3936C6.50873 28.591 6.80081 28.578 6.89825 28.3709L10.4745 20.7746L11.1924 21.0923Z" fill="#FD4755"/>
<path fill-rule="evenodd" clip-rule="evenodd" d="M13.4545 1.13236C15.7343 2.81988 15.2172 2.63382 18.0605 2.79018C19.1525 2.85025 20.0396 3.58628 20.289 4.63939C20.5246 5.63402 20.6399 6.8882 21.4078 7.601L22.7398 8.83728C23.5373 9.57754 23.7384 10.7051 23.2449 11.6705C21.9603 14.1837 22.0558 13.6479 22.3938 16.4441C22.5236 17.5181 21.9447 18.5097 20.9392 18.9356C18.3215 20.0442 18.743 19.6945 17.1844 22.0513C16.5856 22.9565 15.4977 23.3481 14.4507 23.0352C11.7248 22.2206 12.2749 22.2206 9.54906 23.0352C8.50206 23.3481 7.41407 22.9565 6.81537 22.0513C5.2567 19.6945 5.6782 20.0442 3.06048 18.9356C2.05501 18.5097 1.47606 17.5181 1.60592 16.4441C1.94387 13.6479 2.03941 14.1837 0.754771 11.6705C0.261333 10.7051 0.46239 9.57754 1.25989 8.83728C3.33628 6.91009 3.06121 7.38131 3.71069 4.63945C3.96013 3.58628 4.84712 2.85031 5.93926 2.79024C8.78251 2.63382 8.26552 2.81994 10.5452 1.13242C11.421 0.484215 12.5789 0.484215 13.4545 1.13236Z" fill="#FFE177"/>
<path fill-rule="evenodd" clip-rule="evenodd" d="M13.4545 1.13236C15.7343 2.81988 15.2173 2.63382 18.0605 2.79024C19.1526 2.85031 20.0397 3.58628 20.2891 4.63945C20.5247 5.63414 20.6399 6.88832 21.4079 7.60106L22.7399 8.83734C23.5374 9.5776 23.7384 10.7052 23.245 11.6705C21.9604 14.1838 22.0559 13.648 22.3939 16.4441C22.5237 17.5181 21.9448 18.5098 20.9393 18.9356C18.3216 20.0443 18.7431 19.6945 17.1845 22.0514C16.6034 22.9299 15.5615 23.3247 14.5434 23.0611C15.1011 22.9129 15.5982 22.5648 15.9378 22.0514C17.4964 19.6945 17.0749 20.0443 19.6926 18.9356C20.6981 18.5098 21.277 17.5182 21.1472 16.4441C20.8093 13.648 20.7137 14.1838 21.9984 11.6705C22.4918 10.7052 22.2907 9.5776 21.4932 8.83734L20.1613 7.60106C19.3933 6.88832 19.2781 5.63414 19.0424 4.63945C18.7929 3.58628 17.9059 2.85031 16.8138 2.79024C13.9706 2.63382 14.4875 2.81988 12.2078 1.13236C11.9503 0.941815 11.6685 0.807288 11.3766 0.728773C12.0774 0.540289 12.8363 0.674756 13.4545 1.13236ZM11.3765 22.503C10.9601 22.5967 10.4231 22.774 9.54906 23.0352C9.09593 23.1707 8.63522 23.174 8.20974 23.061C8.24063 23.053 8.27152 23.0444 8.30235 23.0352C10.1542 22.4817 10.4943 22.3045 11.3765 22.503Z" fill="#FFD064"/>
<path d="M11.9999 19.217C16.0897 19.217 19.4051 15.9383 19.4051 11.8939C19.4051 7.8495 16.0897 4.57086 11.9999 4.57086C7.91015 4.57086 4.59474 7.8495 4.59474 11.8939C4.59474 15.9383 7.91015 19.217 11.9999 19.217Z" fill="#ECEFF1"/>
<path fill-rule="evenodd" clip-rule="evenodd" d="M11.9999 4.57086C12.1991 4.57086 12.3964 4.57878 12.5917 4.59409C8.7786 4.89224 5.77815 8.0465 5.77815 11.8939C5.77815 15.7413 8.7786 18.8956 12.5917 19.1937C12.3964 19.209 12.1991 19.217 11.9999 19.217C7.91014 19.217 4.59468 15.9383 4.59468 11.8939C4.59468 7.84949 7.91014 4.57086 11.9999 4.57086Z" fill="#D1D1D6"/>
<path fill-rule="evenodd" clip-rule="evenodd" d="M11.9999 6.81864L16.2964 8.63954V12.0751C16.2964 14.5969 14.4706 16.5435 11.9999 16.9694C9.52924 16.5435 7.70339 14.5969 7.70339 12.0751V8.63954L11.9999 6.81864Z" fill="#8AC9FE"/>
<path fill-rule="evenodd" clip-rule="evenodd" d="M11.9999 6.81864L16.2964 8.63954V12.0751C16.2964 14.5969 14.4706 16.5435 11.9999 16.9694C11.8554 16.9445 11.7132 16.9141 11.5733 16.879C13.8247 16.3136 15.4433 14.4494 15.4433 12.0751V8.63954L11.5733 6.99944L11.9999 6.81864Z" fill="#60B7FF"/>
<path fill-rule="evenodd" clip-rule="evenodd" d="M11.4299 12.2726L13.5404 10.1648C13.7902 9.91525 14.1977 9.91453 14.4493 10.162C14.7008 10.4093 14.7016 10.8113 14.4521 11.0603C13.5963 11.9145 12.7463 12.7743 11.8865 13.6245C11.6352 13.8731 11.2274 13.8731 10.9761 13.6245L9.54967 12.214C9.29834 11.9654 9.29834 11.5622 9.54967 11.3136C9.80101 11.0651 10.2088 11.0651 10.4601 11.3136L11.4299 12.2726Z" fill="#ECEFF1"/>
<path fill-rule="evenodd" clip-rule="evenodd" d="M11.4309 12.592C11.5613 12.5915 11.686 12.5399 11.7778 12.4485L13.8882 10.3405C13.9247 10.3041 13.9665 10.2964 13.995 10.2964C14.0177 10.2964 14.0646 10.3018 14.1038 10.3405C14.164 10.3992 14.164 10.4954 14.1046 10.5552C13.7859 10.8729 13.4684 11.1915 13.1511 11.5101C12.6242 12.0382 12.0792 12.5846 11.5402 13.1176C11.4804 13.1771 11.3819 13.1771 11.322 13.1176L9.89576 11.7071C9.83557 11.6476 9.83557 11.5505 9.89576 11.4911C9.93491 11.4523 9.98066 11.4464 10.0052 11.4464C10.0291 11.4464 10.0749 11.4523 10.114 11.4911L11.0842 12.4502C11.1758 12.5411 11.3002 12.592 11.4297 12.592H11.4309ZM10.8059 10.8069C10.5925 10.5953 10.3075 10.4786 10.0052 10.4786C9.70259 10.4786 9.4181 10.5953 9.20395 10.8069C8.76171 11.2437 8.76171 11.9546 9.20395 12.3913L10.6303 13.8021C10.8511 14.0205 11.141 14.1298 11.4315 14.1298C11.7214 14.1298 12.0113 14.0205 12.2324 13.8021C12.7737 13.2665 13.3199 12.719 13.8478 12.1895C14.1646 11.8714 14.4821 11.5534 14.7994 11.2362C15.2387 10.7983 15.2361 10.0886 14.7945 9.65437C14.5803 9.44398 14.2972 9.32839 13.9958 9.32839C13.9944 9.32839 13.9926 9.32839 13.9915 9.32839C13.6886 9.32978 13.4053 9.44737 13.1926 9.65981L11.428 11.4221L10.8059 10.8069ZM15.8068 11.9104V8.79391L11.9998 7.18042L8.1928 8.79391V11.9104C8.1928 14.0893 9.75385 15.8884 11.9998 16.3126C14.2457 15.8884 15.8068 14.0893 15.8068 11.9104ZM16.4889 8.02999L12.1924 6.20921C12.0695 6.15682 11.9301 6.15682 11.8072 6.20921L7.51072 8.02999C7.33076 8.10627 7.21418 8.28138 7.21418 8.47471V11.9104C7.21418 14.5955 9.14774 16.8041 11.916 17.2815C11.9436 17.286 11.9718 17.2886 11.9998 17.2886C12.028 17.2886 12.0562 17.2861 12.0836 17.2815C14.8521 16.8041 16.7854 14.5955 16.7854 11.9104V8.47471C16.7854 8.28144 16.6688 8.10633 16.4889 8.02999ZM11.9998 18.5685C15.8137 18.5685 18.9159 15.5004 18.9159 11.7293C18.9159 7.95825 15.8137 4.89018 11.9998 4.89018C8.18674 4.89018 5.08426 7.95825 5.08426 11.7293C5.08426 15.5004 8.18674 18.5685 11.9998 18.5685ZM11.9998 3.92242C7.64663 3.92242 4.10565 7.42443 4.10565 11.7293C4.10565 16.0342 7.64663 19.5365 11.9998 19.5365C16.3533 19.5365 19.8948 16.0342 19.8948 11.7293C19.8948 7.42443 16.3533 3.92242 11.9998 3.92242ZM22.8082 11.2874C23.2057 10.5099 23.0474 9.62188 22.4051 9.0254C22.2136 8.84805 22.0423 8.69083 21.8888 8.54965C20.4588 7.23795 20.4049 7.1457 19.9711 5.26546C19.9247 5.0633 19.8726 4.8378 19.8127 4.58526C19.6115 3.73653 18.913 3.15711 18.0334 3.10872C17.7708 3.0942 17.538 3.08283 17.328 3.07254C15.3803 2.97661 15.2796 2.94013 13.7246 1.77536C13.5579 1.65008 13.3711 1.51059 13.1614 1.35514C12.8084 1.09407 12.4039 0.96335 11.9997 0.96335C11.5955 0.96335 11.1913 1.09407 10.8383 1.35514C10.6285 1.51059 10.4425 1.65008 10.2749 1.77536C8.72055 2.94013 8.61919 2.97655 6.6715 3.07254C6.46194 3.08277 6.22871 3.0942 5.96642 3.10872C5.08659 3.15711 4.38812 3.73647 4.18688 4.58526C4.12699 4.8378 4.07574 5.0633 4.02851 5.26546C3.5949 7.1457 3.54107 7.23795 2.11165 8.54935C1.95732 8.69083 1.78605 8.84805 1.59484 9.0254C0.952525 9.62188 0.793918 10.5099 1.19181 11.2874C1.30956 11.5192 1.41666 11.7248 1.51227 11.9096C2.40219 13.6255 2.42116 13.7303 2.1782 15.6439C2.15202 15.85 2.12321 16.0792 2.09214 16.3369C1.9876 17.2021 2.44311 17.9831 3.25297 18.3262C3.49452 18.4284 3.70989 18.5181 3.90337 18.5987C5.70022 19.3478 5.78286 19.4159 6.84032 21.0362C6.95489 21.2107 7.08157 21.4046 7.22525 21.6218C7.70725 22.3513 8.56433 22.6596 9.40758 22.4076C9.65892 22.3325 9.8823 22.2642 10.0824 22.2032C11.946 21.6344 12.0537 21.6344 13.9176 22.2032C14.1183 22.2641 14.3414 22.3325 14.5922 22.4076C15.4358 22.6596 16.2926 22.3513 16.7748 21.6218C16.9185 21.4046 17.0457 21.2107 17.1595 21.0362C18.2169 19.4159 18.2996 19.3476 20.0967 18.5987C20.2899 18.5181 20.5053 18.4284 20.7468 18.3262C21.5567 17.9832 22.0124 17.2022 21.9076 16.3369C21.8771 16.0792 21.8478 15.85 21.8215 15.6439C21.5788 13.7303 21.5978 13.6255 22.4878 11.9096C22.583 11.7248 22.6901 11.5192 22.8082 11.2874ZM18.9951 24.4322C18.7944 24.3914 18.5894 24.4789 18.4812 24.6511L16.851 27.2483L15.2007 23.4588C16.1505 23.4471 17.0485 22.9762 17.5941 22.1517C17.7386 21.9327 17.8664 21.7368 17.9813 21.5612C18.7319 20.4114 18.8732 20.1954 19.7399 19.8044L22.0227 25.0455L18.9951 24.4322ZM7.10108 28.4714L5.54779 25.8287C5.44503 25.6536 5.24263 25.5605 5.04077 25.5952L1.99586 26.1214L4.82859 20.1042C5.24691 20.3798 5.47035 20.7215 6.01823 21.5611C6.13341 21.7368 6.26119 21.9326 6.40603 22.1516C7.08377 23.1763 8.30534 23.656 9.49554 23.3847L7.10108 28.4714ZM23.0748 8.31985C22.8822 8.14075 22.7091 7.9822 22.5542 7.84012C21.3047 6.69354 21.3047 6.69354 20.9252 5.05018C20.8783 4.84633 20.8256 4.61913 20.7657 4.36429C20.4677 3.10696 19.3913 2.21414 18.0879 2.1424C17.8236 2.12789 17.5881 2.11621 17.377 2.10599C15.6746 2.02197 15.6746 2.02197 14.3157 1.00412C14.1476 0.877697 13.9596 0.73706 13.7474 0.580151C12.702 -0.193384 11.2977 -0.193384 10.2522 0.580151C10.0401 0.73706 9.85294 0.877697 9.68394 1.00412C8.32559 2.02197 8.32559 2.02197 6.62263 2.10599C6.4116 2.11621 6.17604 2.12789 5.9118 2.1424C4.60844 2.21414 3.53196 3.10702 3.23456 4.36429C3.17407 4.61913 3.1214 4.84633 3.07449 5.05018C2.695 6.69354 2.695 6.69354 1.44609 7.84012C1.2909 7.9822 1.11817 8.14075 0.924939 8.31985C-0.0268883 9.2036 -0.271008 10.5716 0.318341 11.7242C0.437556 11.9577 0.545211 12.1649 0.641061 12.3508C1.41923 13.851 1.41923 13.851 1.2071 15.5234C1.18062 15.731 1.15126 15.9622 1.12012 16.2222C0.965248 17.5042 1.66745 18.7074 2.86774 19.2156C3.111 19.3187 3.32809 19.4093 3.52333 19.4904C3.68169 19.5567 3.82422 19.616 3.95346 19.6709L0.71336 26.5533C0.636228 26.7168 0.657514 26.9089 0.76835 27.0521C0.879185 27.1951 1.06146 27.2654 1.24111 27.2343L4.87336 26.6065L6.72606 29.7594C6.81359 29.9089 6.97507 30 7.14873 30C7.15619 30 7.16396 30 7.17148 29.9997C7.35315 29.9914 7.51586 29.8838 7.59299 29.7204L10.7505 23.0125C12.0109 22.6347 12.1375 22.6729 13.6289 23.1278C13.7579 23.1671 13.8973 23.2096 14.0467 23.2548L16.3235 28.4825C16.3955 28.6481 16.5544 28.7603 16.7369 28.7737C16.749 28.7745 16.7605 28.7752 16.7729 28.7752C16.9411 28.7752 17.0988 28.6891 17.1889 28.5462L19.1326 25.448L22.7453 26.1796C22.9238 26.2155 23.1081 26.1509 23.2229 26.0108C23.3381 25.871 23.3648 25.6794 23.2929 25.514L20.6401 19.4225C20.791 19.3593 20.9542 19.2909 21.1325 19.2155C22.3325 18.7073 23.0353 17.5041 22.8801 16.222C22.8487 15.9621 22.8193 15.7309 22.7932 15.5233C22.581 13.8509 22.581 13.8509 23.3589 12.3507C23.4551 12.1648 23.5625 11.9575 23.6819 11.7241C24.2707 10.5717 24.0272 9.2036 23.0748 8.31985Z" fill="black" fill-opacity="0.6"/>
</svg>
