<svg width="40" height="40" viewBox="0 0 40 40" fill="none" xmlns="http://www.w3.org/2000/svg">
<rect x="0.15" y="0.15" width="39.7" height="39.7" rx="19.85" fill="white"/>
<rect x="0.15" y="0.15" width="39.7" height="39.7" rx="19.85" stroke="#DBDBDB" stroke-width="0.3"/>
<path d="M25.0725 8H21.0278V24.3478C21.0278 26.2957 19.4722 27.8957 17.5363 27.8957C15.6003 27.8957 14.0447 26.2957 14.0447 24.3478C14.0447 22.4348 15.5658 20.8695 17.4326 20.8V16.6957C13.3187 16.7652 10 20.1391 10 24.3478C10 28.5913 13.3879 32 17.5708 32C21.7538 32 25.1416 28.5565 25.1416 24.3478V15.9652C26.6627 17.0783 28.5295 17.7391 30.5 17.7739V13.6696C27.4579 13.5652 25.0725 11.0609 25.0725 8Z" fill="#3F3FD5"/>
</svg>
