<svg width="25" height="25" viewBox="0 0 25 25" fill="none" xmlns="http://www.w3.org/2000/svg">
<path d="M22.06 11.2396L20.7 9.65957C20.44 9.35957 20.23 8.79957 20.23 8.39957V6.69957C20.23 5.63957 19.36 4.76957 18.3 4.76957H16.6C16.21 4.76957 15.64 4.55957 15.34 4.29957L13.76 2.93957C13.07 2.34957 11.94 2.34957 11.24 2.93957L9.67 4.30957C9.37 4.55957 8.8 4.76957 8.41 4.76957H6.68C5.62 4.76957 4.75 5.63957 4.75 6.69957V8.40957C4.75 8.79957 4.54 9.35957 4.29 9.65957L2.94 11.2496C2.36 11.9396 2.36 13.0596 2.94 13.7496L4.29 15.3396C4.54 15.6396 4.75 16.1996 4.75 16.5896V18.2996C4.75 19.3596 5.62 20.2296 6.68 20.2296H8.41C8.8 20.2296 9.37 20.4396 9.67 20.6996L11.25 22.0596C11.94 22.6496 13.07 22.6496 13.77 22.0596L15.35 20.6996C15.65 20.4396 16.21 20.2296 16.61 20.2296H18.31C19.37 20.2296 20.24 19.3596 20.24 18.2996V16.5996C20.24 16.2096 20.45 15.6396 20.71 15.3396L22.07 13.7596C22.65 13.0696 22.65 11.9296 22.06 11.2396ZM16.66 10.6096L11.83 15.4396C11.69 15.5796 11.5 15.6596 11.3 15.6596C11.1 15.6596 10.91 15.5796 10.77 15.4396L8.35 13.0196C8.06 12.7296 8.06 12.2496 8.35 11.9596C8.64 11.6696 9.12 11.6696 9.41 11.9596L11.3 13.8496L15.6 9.54957C15.89 9.25957 16.37 9.25957 16.66 9.54957C16.95 9.83957 16.95 10.3196 16.66 10.6096Z" fill="#01F7F8"/>
</svg>
