<svg width="40" height="40" viewBox="0 0 40 40" fill="none" xmlns="http://www.w3.org/2000/svg">
<rect x="0.15" y="0.15" width="39.7" height="39.7" rx="19.85" fill="white"/>
<rect x="0.15" y="0.15" width="39.7" height="39.7" rx="19.85" stroke="#DBDBDB" stroke-width="0.3"/>
<path d="M8 32L9.687 25.837C8.646 24.033 8.099 21.988 8.1 19.891C8.103 13.335 13.438 8 19.993 8C23.174 8.001 26.16 9.24 28.406 11.488C30.6509 13.736 31.8869 16.724 31.8859 19.902C31.8829 26.459 26.548 31.794 19.993 31.794C18.003 31.793 16.042 31.294 14.305 30.346L8 32ZM14.597 28.193C16.273 29.188 17.873 29.784 19.989 29.785C25.437 29.785 29.875 25.351 29.878 19.9C29.88 14.438 25.463 10.01 19.997 10.008C14.545 10.008 10.11 14.442 10.108 19.892C10.107 22.117 10.759 23.783 11.854 25.526L10.855 29.174L14.597 28.193ZM25.984 22.729C25.91 22.605 25.712 22.531 25.414 22.382C25.117 22.233 23.656 21.514 23.383 21.415C23.111 21.316 22.913 21.266 22.714 21.564C22.516 21.861 21.946 22.531 21.773 22.729C21.6 22.927 21.426 22.952 21.129 22.803C20.832 22.654 19.874 22.341 18.739 21.328C17.856 20.54 17.259 19.567 17.086 19.269C16.913 18.972 17.068 18.811 17.216 18.663C17.35 18.53 17.513 18.316 17.662 18.142C17.813 17.97 17.862 17.846 17.962 17.647C18.061 17.449 18.012 17.275 17.937 17.126C17.862 16.978 17.268 15.515 17.021 14.92C16.779 14.341 16.534 14.419 16.352 14.41L15.782 14.4C15.584 14.4 15.262 14.474 14.99 14.772C14.718 15.07 13.95 15.788 13.95 17.251C13.95 18.714 15.015 20.127 15.163 20.325C15.312 20.523 17.258 23.525 20.239 24.812C20.948 25.118 21.502 25.301 21.933 25.438C22.645 25.664 23.293 25.632 23.805 25.556C24.376 25.471 25.563 24.837 25.811 24.143C26.059 23.448 26.059 22.853 25.984 22.729Z" fill="#3F3FD5"/>
</svg>
